<svg width="86" height="86" viewBox="0 0 86 86" fill="none" xmlns="http://www.w3.org/2000/svg">
    <g clip-path="url(#clip0_7705_29)">
        <path fill-rule="evenodd" clip-rule="evenodd" d="M42.7 85.4C66.3 85.4 85.4 66.3 85.4 42.7C85.4 19.1 66.3 0 42.7 0C19.1 0 0 19.1 0 42.7C0 66.2 19 85.4 42.7 85.4Z" fill="#FBEB74"/>
        <path fill-rule="evenodd" clip-rule="evenodd" d="M42.7 81.7C64.3 81.7 81.8 64.2 81.8 42.6C81.8 21 64.3 3.5 42.7 3.5C21.1 3.5 3.60004 21 3.60004 42.6C3.50004 64.2 21 81.7 42.7 81.7Z" fill="#FBEB74"/>
        <path fill-rule="evenodd" clip-rule="evenodd" d="M17.7 39.1H67.5999C69.4999 39.1 71.0999 40.7 71.0999 42.6V42.7C71.0999 44.6 69.4999 46.2 67.5999 46.2H17.7C15.8 46.2 14.2 44.6 14.2 42.7V42.6C14.2 40.7 15.8 39.1 17.7 39.1Z" fill="#A87229"/>
    </g>
    <defs>
        <clipPath id="clip0_7705_29">
            <rect width="85.4" height="85.4" fill="white"/>
        </clipPath>
    </defs>
</svg>
