<svg xmlns="http://www.w3.org/2000/svg" width="24" height="24" viewBox="0 0 1024 1024" fill="currentColor">
  <path d="M874.666667 248.96A447.36 447.36 0 0 0 512 64c-231.552 0-421.973333 175.573333-445.568 400.896l-4.437333 42.410667 84.906666 8.917333 4.394667-42.453333A362.709333 362.709333 0 0 1 819.712 320H661.333333v85.333333h298.666667v-298.666666h-85.333333v142.293333z m2.432 258.816l-4.437334 42.453333A362.709333 362.709333 0 0 1 204.245333 704H362.666667v-85.333333h-298.666667v298.666666h85.333333v-142.293333A447.36 447.36 0 0 0 512 960c231.509333 0 421.973333-175.573333 445.525333-400.896l4.437334-42.410667-84.864-8.917333z"/>
</svg>