<svg width="86" height="86" viewBox="0 0 86 86" fill="none" xmlns="http://www.w3.org/2000/svg">
    <g clip-path="url(#clip0_7704_13)">
        <path fill-rule="evenodd" clip-rule="evenodd" d="M42.7 85.4C66.3 85.4 85.4 66.3 85.4 42.7C85.4 19.1 66.3 0 42.7 0C19.1 0 0 19.1 0 42.7C0 66.3 19.1 85.4 42.7 85.4Z" fill="#F09389"/>
        <path fill-rule="evenodd" clip-rule="evenodd" d="M42.7 81.7C64.3 81.7 81.8 64.2 81.8 42.6C81.8 21 64.3 3.5 42.7 3.5C21.1 3.5 3.59998 21 3.59998 42.6C3.59998 64.2 21.1 81.7 42.7 81.7Z" fill="#F09389"/>
        <path fill-rule="evenodd" clip-rule="evenodd" d="M22.5 57.7999L57.7999 22.5C59.1999 21.1 61.3999 21.1 62.7999 22.5L62.9 22.6C64.3 24 64.3 26.2 62.9 27.6L27.6 62.9C26.2 64.3 24 64.3 22.6 62.9L22.5 62.7999C21.1 61.3999 21.1 59.0999 22.5 57.7999Z" fill="#8B1A0F"/>
        <path fill-rule="evenodd" clip-rule="evenodd" d="M27.5 22.5L62.8 57.7999C64.2 59.1999 64.2 61.3999 62.8 62.7999L62.7 62.9C61.3 64.3 59.1 64.3 57.7 62.9L22.4 27.6C21 26.2 21 24 22.4 22.6L22.5 22.5C23.9 21.1 26.2 21.1 27.5 22.5Z" fill="#8B1A0F"/>
    </g>
    <defs>
        <clipPath id="clip0_7704_13">
            <rect width="85.4" height="85.4" fill="white"/>
        </clipPath>
    </defs>
</svg>
