<svg width="86" height="86" viewBox="0 0 86 86" fill="none" xmlns="http://www.w3.org/2000/svg">
    <g clip-path="url(#clip0_7704_6)">
        <path fill-rule="evenodd" clip-rule="evenodd" d="M42.7 85.4C66.3 85.4 85.4 66.3 85.4 42.7C85.4 19.1 66.3 0 42.7 0C19.1 0 0 19.1 0 42.7C0 66.3 19.1 85.4 42.7 85.4Z" fill="#EC6A5E"/>
        <path fill-rule="evenodd" clip-rule="evenodd" d="M42.7 81.8C64.3 81.8 81.8 64.3 81.8 42.7C81.8 21.1 64.3 3.59998 42.7 3.59998C21.1 3.59998 3.59998 21.1 3.59998 42.7C3.59998 64.3 21.1 81.8 42.7 81.8Z" fill="#EC6A5E"/>
        <path fill-rule="evenodd" clip-rule="evenodd" d="M22.4999 57.7999L57.7999 22.5C59.1999 21.1 61.3999 21.1 62.7999 22.5L62.8999 22.6C64.2999 24 64.2999 26.2 62.8999 27.6L27.5999 62.9C26.1999 64.3 23.9999 64.3 22.5999 62.9L22.4999 62.7999C21.1999 61.3999 21.1999 59.1999 22.4999 57.7999Z" fill="#8B1A0F"/>
        <path fill-rule="evenodd" clip-rule="evenodd" d="M27.6 22.4999L62.9 57.7999C64.3 59.1999 64.3 61.3999 62.9 62.7999L62.7999 62.8999C61.3999 64.2999 59.1999 64.2999 57.7999 62.8999L22.5 27.5999C21.1 26.1999 21.1 23.9999 22.5 22.5999L22.6 22.4999C24 21.1999 26.2 21.1999 27.6 22.4999Z" fill="#8B1A0F"/>
    </g>
    <defs>
        <clipPath id="clip0_7704_6">
            <rect width="85.4" height="85.4" fill="white"/>
        </clipPath>
    </defs>
</svg>
